<?xml version="1.0" encoding="UTF-8"?>
<svg xmlns="http://www.w3.org/2000/svg" width="1200" height="900" viewBox="0 0 1200 900">
  <rect x="0" y="0" width="1200" height="900" fill="#0b1220"/>
  <text x="70" y="38" fill="#e2e8f0" font-family="Arial, sans-serif" font-size="28" font-weight="700">ZHU Perimeter and Bounding Box</text>
  <text x="70" y="62" fill="#94a3b8" font-family="Arial, sans-serif" font-size="14">Blue: ZHU perimeter | Red dashed: overall bounding box</text>

  <rect x="70.00" y="199.47" width="1060.00" height="501.07" fill="#0f172a" stroke="#334155" stroke-width="1"/>

  <polyline points="316.49,566.85 294.21,557.94 290.25,553.98 287.28,550.02 286.78,543.08 271.43,518.33 269.78,508.76 266.98,493.08 261.86,488.37 260.99,487.63 252.57,479.87 248.66,476.24 241.73,463.86 227.37,451.98 218.95,437.13 200.23,403.46 70.00,382.00 79.82,360.38 86.75,357.91 111.01,267.79 107.05,259.38 155.41,265.09 169.44,266.80 217.96,272.94 232.81,275.88 248.66,269.77 270.44,261.85 324.41,261.60 369.80,261.44 374.67,262.35 382.34,268.78 386.55,272.00 405.12,272.74 409.57,272.74 417.00,272.50 435.82,272.50 445.97,268.78 460.57,263.34 477.41,256.90 498.45,255.66 518.50,254.92 543.26,252.94 543.26,236.60 559.10,236.60 559.10,252.20 562.73,251.29 583.36,250.63 604.56,250.76 618.02,250.96 620.99,250.96 636.14,237.43 662.83,213.82 683.05,218.78 698.73,208.38 712.10,208.38 732.56,208.38 741.80,199.47 755.17,230.41 778.94,237.10 785.38,239.08 793.79,241.30 812.36,246.01 830.93,246.83 836.87,247.00 841.82,247.16 867.57,228.18 882.42,228.18 898.26,252.11 932.43,253.93 962.63,253.68 978.47,263.34 987.39,267.96 976.16,281.66 972.04,287.10 970.55,293.79 970.06,297.01 968.57,302.95 963.13,303.44 956.69,306.41 956.69,313.35 950.25,330.92 950.25,334.87 950.25,339.01 950.25,346.02 950.75,367.81 950.91,369.29 951.08,403.46 951.74,454.46 960.78,472.78 970.55,492.58 1022.01,507.95 1070.57,522.29 1105.39,545.89 1124.54,569.82 1130.00,639.12 1130.00,700.53 1070.57,700.53 951.74,670.83 878.46,670.83 783.39,670.83 713.58,670.83 684.37,670.83 654.17,670.83 553.66,618.34 481.37,581.70 477.44,581.75 469.65,596.56 395.71,592.60 372.44,581.70 360.06,578.24 344.71,577.74 332.33,570.81 322.68,567.51 316.49,566.85" fill="none" stroke="#38bdf8" stroke-width="2.2"/>
  <polyline points="70.00,700.53 1130.00,700.53 1130.00,199.47 70.00,199.47 70.00,700.53" fill="none" stroke="#ef4444" stroke-width="2" stroke-dasharray="10 8"/>

  <g font-family="Arial, sans-serif" font-size="14" fill="#cbd5e1">
    <text x="70" y="876">Lon: [-102.840, -85.000]</text>
    <text x="600.0" y="876">Lat: [24.000, 32.433]</text>
  </g>
</svg>
